<svg height="816" width="1056" xml:space="preserve" xmlns="http://www.w3.org/2000/svg"><defs><clipPath clipPathUnits="userSpaceOnUse" id="a"><path d="M0 612h792V0H0Z"/></clipPath><clipPath
  clipPathUnits="userSpaceOnUse" id="b"><path d="M0 612h792V0H0Z"/></clipPath></defs>
  <g clip-path="url(#a)" transform="matrix(1.33333 0 0 -1.33333 0 816)"><g clip-path="url(#b)"><path d="M612.966 612a37953.03 37953.03 0 0 0 42.173-14.455c27.172-9.541 51.759-21.677 71.618-35.393 22.202-15.345 39.146-33.152 46.458-51.575 9.392-21.342 6.036-43.572-10.945-63.287-16.877-18.503-32.716-33.474-51.98-53.341 0 0-23.59-23.893-68.012-68.9-26.251-26.608-61.818-62.629-107.956-109.364-26.451-26.806-57.049-57.79-92.287-93.489C407.309 87.009 367.366 46.546 321.415 0h191.422c31.781 43.162 58.912 80.02 82.239 111.692 24.83 33.678 45.892 62.345 63.886 86.766 31.838 43.243 55.457 75.325 72.645 98.664 29.889 40.582 44.039 59.811 44.039 59.811 5.851 8.115 11.212 15.324 16.354 22.221v158.941c-9.991 9.061-21.487 17.648-33.998 25.585-24.696 15.655-54.152 29.32-85.909 39.967-8.751 2.873-17.234 5.655-25.473 8.353z" style="fill:#959aa1;fill-opacity:1;fill-rule:nonzero;stroke:none"/><path
    d="M578.313 612c18.429-6.617 37.89-13.617 58.501-21.052 46.361-17.115 82.989-44.498 89.671-72.401 4.767-16.574-.981-33.172-16.831-47.505-16.965-14.57-35.333-28.568-55.746-45.155l-88.585-70.996a528052.929 528052.929 0 0 0-58.61-46.973c-24.27-19.456-52.33-41.943-84.47-67.699-35.653-28.572-77.035-61.736-124.817-100.035-26.325-21.087-54.802-43.92-85.606-68.61C184.137 49.387 154.42 25.568 122.516 0h198.893c24.485 24.81 46.965 47.586 67.66 68.541 24.33 24.631 46.384 47 66.463 67.329 36.577 37.077 67.294 68.167 93.181 94.394 45.115 45.705 78.092 79.116 101.82 103.148 40.633 41.165 59.757 60.537 59.757 60.537 19.264 19.867 35.103 34.838 51.98 53.341 16.981 19.715 20.337 41.945 10.945 63.287-7.312 18.423-24.256 36.23-46.458 51.575-19.859 13.716-44.446 25.852-71.618 35.393A37953.03 37953.03 0 0 1 612.966 612z"
    style="fill:#ed69b7;fill-opacity:1;fill-rule:nonzero;stroke:none"/><path
    d="M542.578 612a43936.355 43936.355 0 0 0 74.362-28.204c36.164-14.095 62.57-36.064 64.213-57.517 1.641-12.278-4.876-24.083-18.423-34.056-16.314-11.454-36.99-24.532-57.955-38.51l-25.933-17.075c-18.013-11.863-46.08-30.348-83.915-55.255-20.964-13.811-45.42-29.904-73.476-48.377a543539.454 543539.454 0 0 0-107.048-70.486c-45.686-30.089-98.887-65.141-160.453-105.65-34.204-22.527-71.282-46.952-111.452-73.388L0 55.496V0h122.508c31.654 25.372 61.186 49.021 88.712 71.094 30.684 24.594 59.092 47.35 85.356 68.41 47.714 38.226 89.093 71.401 124.788 100.01 32.178 25.793 60.309 48.331 84.656 67.848 22.428 17.973 42.001 33.665 58.828 47.148 57.773 46.293 89.06 71.377 89.06 71.377 20.413 16.587 38.781 30.585 55.746 45.155 15.85 14.333 21.598 30.931 16.831 47.505-6.682 27.903-43.31 55.286-89.671 72.401A41727.693 41727.693 0 0 1 578.313 612z"
    style="fill:#3f585a;fill-opacity:1;fill-rule:nonzero;stroke:none"/><path
    d="M505.735 612c27.707-11.1 57.663-23.119 89.587-35.986 25.876-10.695 43.242-26.982 41.829-42.229-.164-8.415-6.136-16.12-16.53-22.553-15.166-8.949-37.933-21.199-59.049-33.05l-23.746-13.187c-16.765-9.307-43.43-24.126-81.638-45.337-21.05-11.697-46.166-25.641-75.957-42.182-32.584-18.097-71.571-39.743-118.3-65.698-25.57-14.201-53.75-29.854-84.873-47.133-33.435-18.576-70.605-39.206-112.045-62.223C44.534 191.053 22.895 179.034 0 166.318V55.496l42.498 27.986c40.17 26.436 77.248 50.861 111.452 73.388 61.566 40.509 114.767 75.561 160.453 105.65 40.79 26.854 76.362 50.273 107.048 70.486 28.056 18.473 52.512 34.566 73.476 48.377 37.835 24.907 65.902 43.392 83.915 55.255l25.933 17.075c20.965 13.978 41.641 27.056 57.955 38.51 13.547 9.973 20.064 21.778 18.423 34.056-1.643 21.453-28.049 43.422-64.213 57.517A43936.355 43936.355 0 0 1 542.578 612z"
    style="fill:#16b4ed;fill-opacity:1;fill-rule:nonzero;stroke:none"/><path
    d="m467.742 612 15.715-6.706a43123.051 43123.051 0 0 0 88.249-37.781c15.572-6.845 25.246-17.163 22.723-26.44-.824-4.937-5.17-9.139-11.806-12.687-13.68-6.926-38.354-18.414-59.33-28.524l-36.073-17.224-117.947-56.318c-29.958-14.306-65.018-31.042-105.279-50.268-44.7-21.348-96.743-46.19-156.493-74.723C74.577 285.603 39.05 268.642.83 250.395l-.83-.397v-83.68c22.895 12.716 44.534 24.735 65.013 36.104 41.44 23.017 78.61 43.647 112.045 62.223 31.123 17.279 59.303 32.932 84.873 47.133 46.729 25.955 85.716 47.601 118.3 65.698 29.791 16.541 54.907 30.485 75.957 42.182 38.208 21.211 64.873 36.03 81.638 45.337l23.746 13.187c21.116 11.851 43.883 24.101 59.049 33.05 10.394 6.433 16.366 14.138 16.53 22.553 1.413 15.247-15.953 31.534-41.829 42.229A45756.422 45756.422 0 0 1 505.735 612z"
    style="fill:#2483c9;fill-opacity:1;fill-rule:nonzero;stroke:none"/></g></g></svg>
